<?xml version="1.0" encoding="UTF-8"?>
<svg version="1.1" xmlns="http://www.w3.org/2000/svg" width="745" height="172">
<path d="M0 0 C5.53931528 4.03550315 10.81514104 8.30289304 15.97485352 12.8137207 C19.69412903 11.05820683 22.42554781 8.83195855 25.53735352 6.1262207 C40.03695623 -6.1520067 56.88078023 -13.77065179 74.97485352 -19.1862793 C76.14145508 -19.54979492 77.30805664 -19.91331055 78.51000977 -20.2878418 C86.02679274 -22.23695125 93.460883 -22.53953588 100.41235352 -18.7487793 C107.37007749 -13.95190943 111.290295 -7.41439506 112.97485352 0.8137207 C113.24887226 4.00159668 113.24856419 7.17169254 113.23364258 10.36987305 C113.23889954 11.76886589 113.23889954 11.76886589 113.2442627 13.19612122 C113.25302922 16.26404372 113.24724781 19.33173355 113.24047852 22.3996582 C113.24182685 24.5428573 113.24376879 26.6860561 113.24627686 28.82925415 C113.24922144 33.31629352 113.24495269 37.80325312 113.2355957 42.2902832 C113.22421543 48.02543191 113.23075591 53.7603931 113.24274063 59.4955349 C113.24998895 63.92061764 113.24765742 68.3456564 113.24248505 72.77074051 C113.24115605 74.88452807 113.24276983 76.9983197 113.24744415 79.11210251 C113.25255677 82.0744347 113.2447323 85.03646912 113.23364258 87.9987793 C113.23769104 88.86244614 113.2417395 89.72611298 113.24591064 90.61595154 C113.17898962 100.32756679 111.62677758 107.55707627 104.97485352 114.8137207 C97.34464168 122.1121842 90.62495262 124.41237919 80.2331543 124.37548828 C78.6600927 124.39340424 78.6600927 124.39340424 77.05525208 124.41168213 C73.59341798 124.44620457 70.13215813 124.45258057 66.67016602 124.45825195 C64.22955185 124.47581357 61.7889485 124.49494073 59.34835815 124.51554871 C54.21896329 124.55487296 49.0897241 124.58136576 43.96020508 124.59765625 C37.4897831 124.61832885 31.01976591 124.66087032 24.54951859 124.71176338 C-18.78075858 125.0495255 -18.78075858 125.0495255 -39.89780045 124.61701012 C-41.93736969 124.57730054 -43.97723207 124.55361402 -46.01705933 124.53071594 C-54.48450953 124.29553859 -61.74993959 123.01853303 -68.64624023 117.84887695 C-74.28482925 111.72524802 -78.11674141 106.92952984 -78.17904663 98.37582397 C-78.18764709 97.49287659 -78.19624756 96.6099292 -78.20510864 95.70022583 C-78.20936859 94.7391391 -78.21362854 93.77805237 -78.21801758 92.7878418 C-78.22619507 91.76944214 -78.23437256 90.75104248 -78.24279785 89.70178223 C-78.26761629 86.33024681 -78.2841603 82.95875346 -78.29858398 79.5871582 C-78.30390766 78.43385639 -78.30923134 77.28055458 -78.31471634 76.09230423 C-78.34143452 69.9859407 -78.36081235 63.87959751 -78.37524414 57.77319336 C-78.38857464 52.72743568 -78.41641364 47.68208324 -78.45727539 42.63647461 C-78.50666934 36.5369351 -78.53137382 30.43776273 -78.53847122 24.33803177 C-78.54517154 22.01848976 -78.56036161 19.69895556 -78.58436203 17.37952805 C-78.61611698 14.12457741 -78.61603408 10.8710328 -78.60864258 7.6159668 C-78.62504791 6.66702545 -78.64145325 5.71808411 -78.65835571 4.74038696 C-78.5885266 -2.81349956 -76.56705368 -9.63736573 -71.11214256 -15.1030674 C-51.37374972 -31.44300912 -17.76096892 -12.67480527 0 0 Z " fill="#625EFD" transform="translate(99.025146484375,32.186279296875)"/>
<path d="M0 0 C6.95772397 4.79686986 10.87794148 11.33438424 12.5625 19.5625 C12.83651874 22.75037598 12.83621068 25.92047183 12.82128906 29.11865234 C12.82654602 30.51764519 12.82654602 30.51764519 12.83190918 31.94490051 C12.84067571 35.01282302 12.83489429 38.08051284 12.828125 41.1484375 C12.82947334 43.2916366 12.83141527 45.43483539 12.83392334 47.57803345 C12.83686792 52.06507282 12.83259917 56.55203242 12.82324219 61.0390625 C12.81186192 66.7742112 12.8184024 72.5091724 12.83038712 78.24431419 C12.83763543 82.66939694 12.83530391 87.09443569 12.83013153 91.51951981 C12.82880254 93.63330737 12.83041632 95.74709899 12.83509064 97.86088181 C12.84020325 100.823214 12.83237878 103.78524841 12.82128906 106.74755859 C12.82533752 107.61122543 12.82938599 108.47489227 12.83355713 109.36473083 C12.7666361 119.07634609 11.21442406 126.30585557 4.5625 133.5625 C-3.06771184 140.8609635 -9.7874009 143.16115849 -20.17919922 143.12426758 C-21.75226082 143.14218353 -21.75226082 143.14218353 -23.35710144 143.16046143 C-26.81893553 143.19498386 -30.28019539 143.20135987 -33.7421875 143.20703125 C-36.18280167 143.22459287 -38.62340502 143.24372003 -41.06399536 143.264328 C-46.19339023 143.30365226 -51.32262942 143.33014506 -56.45214844 143.34643555 C-62.92253498 143.36710803 -69.39251659 143.40962744 -75.86272812 143.4605732 C-98.20300757 143.63453315 -120.54725429 143.77806322 -142.8828125 143.19921875 C-143.58516903 143.18358194 -144.28752556 143.16794514 -145.01116562 143.15183449 C-146.92456359 143.10655566 -148.83756665 143.04538612 -150.75048828 142.9831543 C-152.3086174 142.93423286 -152.3086174 142.93423286 -153.89822388 142.88432312 C-156.4375 142.5625 -156.4375 142.5625 -159.4375 140.5625 C-158.2068985 140.57138245 -156.976297 140.58026489 -155.70840454 140.5894165 C-144.08581668 140.67066068 -132.46328677 140.73054143 -120.8404789 140.76974869 C-114.86569975 140.79058348 -108.89115067 140.81882635 -102.91650391 140.86425781 C-97.14580411 140.90786162 -91.375325 140.93166799 -85.60447311 140.94200897 C-83.40774438 140.94937424 -81.21102711 140.96375673 -79.01439285 140.98542023 C-75.92681446 141.01464699 -72.84013685 141.01844791 -69.75244141 141.01660156 C-68.40375977 141.03817322 -68.40375977 141.03817322 -67.02783203 141.06018066 C-59.98837537 141.01491724 -52.80637657 139.68435536 -47.48560524 134.75372696 C-41.9102041 128.43779247 -40.16658842 122.86603201 -40.27734375 114.49609375 C-40.51214133 111.66134253 -41.45952044 109.2247777 -42.4375 106.5625 C-42.72158026 105.21105024 -42.99103445 103.85648623 -43.25 102.5 C-44.59047911 96.25839413 -47.05159856 90.46483176 -49.4375 84.5625 C-49.8190625 83.55832031 -50.200625 82.55414063 -50.59375 81.51953125 C-56.51178456 66.38455773 -70.14595415 41.20827292 -85.4375 33.5625 C-84.4375 31.5625 -84.4375 31.5625 -82.72265625 30.73046875 C-79.70103041 29.18608221 -77.43445486 27.10046475 -74.875 24.875 C-60.37539728 12.5967726 -43.53157329 4.9781275 -25.4375 -0.4375 C-23.68759766 -0.98277344 -23.68759766 -0.98277344 -21.90234375 -1.5390625 C-14.38556078 -3.48817195 -6.95147052 -3.79075658 0 0 Z " fill="#3FD7EA" transform="translate(199.4375,13.4375)"/>
<path d="M0 0 C16.68316742 9.26842635 28.95773969 36.38976606 35.6875 53.3125 C36.26032715 54.7504895 36.26032715 54.7504895 36.84472656 56.2175293 C38.9051653 61.59071213 40.44210931 66.80384293 41.42236328 72.47753906 C41.79764381 74.74517186 41.79764381 74.74517186 42.8125 77.5625 C43.22815303 85.87556061 41.83656352 92.08145168 36.59375 98.69921875 C32.16840985 103.32835746 26.91694075 106.30273379 20.48712158 106.70967102 C19.63188904 106.71951523 18.77665649 106.72935944 17.89550781 106.73950195 C16.4331369 106.75875481 16.4331369 106.75875481 14.94122314 106.77839661 C13.89327576 106.78578354 12.84532837 106.79317047 11.765625 106.80078125 C10.1378714 106.81288887 10.1378714 106.81288887 8.47723389 106.82524109 C6.18080231 106.8390652 3.88435032 106.84979483 1.58789062 106.85766602 C-1.91055576 106.87486752 -5.4080542 106.91876879 -8.90625 106.96289062 C-11.14061807 106.97301916 -13.37499416 106.98153476 -15.609375 106.98828125 C-16.64922546 107.00578934 -17.68907593 107.02329742 -18.76043701 107.04133606 C-26.26842329 107.01909341 -31.64615329 105.60241708 -37.39453125 100.66796875 C-42.67591722 94.35857578 -45.80300753 88.83864683 -45.546875 80.4375 C-44.52147717 72.23431736 -41.52416885 64.28166413 -38.82421875 56.49609375 C-38.25050632 54.75383822 -37.80432137 52.97083492 -37.375 51.1875 C-35.96983829 46.89805899 -33.94521889 43.22507881 -31.72265625 39.30859375 C-30.69479299 37.46994777 -29.72436222 35.5980682 -28.8125 33.69921875 C-26.84646588 29.90420576 -24.55385254 26.44872511 -22.125 22.9375 C-21.40679077 21.89722656 -21.40679077 21.89722656 -20.67407227 20.8359375 C-16.22778874 14.48013986 -11.59019856 8.14493609 -6.1875 2.5625 C-5.5275 2.5625 -4.8675 2.5625 -4.1875 2.5625 C-4.1875 1.9025 -4.1875 1.2425 -4.1875 0.5625 C-2.1875 -0.4375 -2.1875 -0.4375 0 0 Z " fill="#174FE9" transform="translate(117.1875,48.4375)"/>
<path d="M0 0 C0.89525391 -0.020625 1.79050781 -0.04125 2.71289062 -0.0625 C13.03112635 -0.12209992 21.87900954 2.51947642 29.8125 9.25 C41.5298331 21.61974585 42.39924128 37.09845425 42.12109375 53.265625 C41.60257533 66.95795361 37.2996305 76.76484942 28.375 87.0625 C18.66315069 95.35310307 7.79212184 97.89977165 -4.921875 97.53125 C-16.436833 96.53953113 -25.58002643 93.50422493 -33.5 84.875 C-42.63789407 73.38302242 -43.62578761 59.42129938 -43.1875 45.25 C-43.17074219 44.24066406 -43.15398437 43.23132813 -43.13671875 42.19140625 C-42.6232402 29.97061687 -38.82259162 19.09962805 -30.1875 10.25 C-21.05715834 2.05610364 -11.99741467 0.0676387 0 0 Z M-16.1875 16.25 C-17.0125 16.78625 -17.8375 17.3225 -18.6875 17.875 C-19.1825 18.32875 -19.6775 18.7825 -20.1875 19.25 C-20.1875 19.91 -20.1875 20.57 -20.1875 21.25 C-20.8475 21.25 -21.5075 21.25 -22.1875 21.25 C-29.86723745 36.68403546 -30.23380527 53.8443162 -25.1875 70.25 C-22.42490977 76.50016961 -19.13001906 80.5355821 -12.7890625 83.29296875 C-3.85805874 86.21958998 4.15072957 86.14092227 12.8125 82.25 C19.466695 77.82530333 23.60962162 72.27551719 25.89453125 64.62890625 C28.7173855 49.88062496 29.02440027 34.83406544 21.25 21.4375 C17.64327627 16.4881273 13.73528131 13.82940835 7.8125 12.25 C-0.91892136 11.2759769 -8.67188763 11.19141475 -16.1875 16.25 Z " fill="#1E1E1E" transform="translate(345.1875,47.75)"/>
<path d="M0 0 C0.92039062 -0.01160156 1.84078125 -0.02320313 2.7890625 -0.03515625 C13.85694986 0.01160947 22.35612964 2.99803911 30.5625 10.5 C40.55271092 20.86594894 41.35086754 34.06046186 41.3125 47.75 C41.32861328 48.89210937 41.34472656 50.03421875 41.36132812 51.2109375 C41.36922877 65.11607659 38.24253606 76.90785506 28.625 87.25 C19.6630937 95.56758624 7.22923239 97.98901061 -4.6953125 97.66015625 C-17.7981237 96.52953543 -26.7552224 92.81685426 -35.2421875 82.765625 C-42.54003584 72.84055125 -43.34701896 61.44355861 -43.3125 49.5 C-43.32861328 48.39269531 -43.34472656 47.28539062 -43.36132812 46.14453125 C-43.36997872 31.42122238 -39.28072379 20.25376038 -29.22265625 9.57421875 C-21.00831753 1.44649871 -11.17123561 -0.14081389 0 0 Z M-23 22.375 C-30.43160199 34.19102795 -30.3091294 49.50084171 -27.8125 62.75 C-25.75837923 71.32163479 -22.4379781 77.36866859 -15 82.375 C-7.52809937 85.87789481 -0.28730454 86.53436999 7.625 84.1875 C14.09247707 81.76078522 18.95386369 78.65814464 22.16015625 72.328125 C28.5700897 57.42130303 28.60071677 41.43218806 23.375 26.125 C20.74562445 19.96362744 16.37409601 15.7859856 10.20703125 13.20703125 C-2.71171659 9.85539509 -14.08483225 12.37214294 -23 22.375 Z " fill="#1D1D1D" transform="translate(513,47.625)"/>
<path d="M0 0 C-0.45962552 4.83958636 -2.82527321 7.80290405 -5.8125 11.4375 C-6.54194824 12.34568481 -6.54194824 12.34568481 -7.28613281 13.2722168 C-10.85875297 17.68897391 -14.54294869 22.0084858 -18.25 26.3125 C-18.75072021 26.89563965 -19.25144043 27.4787793 -19.76733398 28.07958984 C-20.25403564 28.64629395 -20.7407373 29.21299805 -21.2421875 29.796875 C-21.70979492 30.34150391 -22.17740234 30.88613281 -22.65917969 31.44726562 C-23.89113572 32.87392993 -25.13635595 34.289112 -26.3828125 35.703125 C-27.04023437 36.48171875 -27.69765625 37.2603125 -28.375 38.0625 C-28.93960938 38.71347656 -29.50421875 39.36445312 -30.0859375 40.03515625 C-31.27366988 42.04231796 -31.27366988 42.04231796 -30.34375 44.5078125 C-29.08481458 46.84269854 -27.80224107 48.76392944 -26.125 50.8125 C-22.23889662 55.67214066 -18.49769657 60.62681779 -14.78271484 65.61767578 C-12.07811654 69.24666262 -9.34764881 72.84943711 -6.55859375 76.4140625 C-6.00453857 77.13005615 -5.4504834 77.8460498 -4.87963867 78.58374023 C-3.81516115 79.95791294 -2.74145213 81.32499747 -1.6574707 82.68383789 C1.92711112 87.34313234 1.92711112 87.34313234 2.328125 90.95703125 C2.21984375 91.63121094 2.1115625 92.30539063 2 93 C-0.44971624 94.22485812 -2.14234461 94.16722808 -4.875 94.1875 C-6.17050781 94.20876953 -6.17050781 94.20876953 -7.4921875 94.23046875 C-10.8961271 93.91764564 -13.11270194 92.98228971 -15.42529297 90.42211914 C-15.85986816 89.79942139 -16.29444336 89.17672363 -16.7421875 88.53515625 C-17.24435791 87.82649414 -17.74652832 87.11783203 -18.26391602 86.38769531 C-18.79557373 85.62038086 -19.32723145 84.85306641 -19.875 84.0625 C-21.02627576 82.43283874 -22.17865865 80.80395917 -23.33203125 79.17578125 C-23.92967285 78.32838379 -24.52731445 77.48098633 -25.14306641 76.60791016 C-28.79791805 71.47497231 -32.57206366 66.42930661 -36.32958984 61.37133789 C-36.88211426 60.62489014 -37.43463867 59.87844238 -38.00390625 59.109375 C-38.48674072 58.45936523 -38.9695752 57.80935547 -39.46704102 57.13964844 C-41.37936954 54.47048978 -43.1898738 51.73920242 -45 49 C-45.01458252 50.29212402 -45.02916504 51.58424805 -45.04418945 52.91552734 C-45.10205022 57.69787633 -45.17928317 62.47974839 -45.26245117 67.26171875 C-45.29575823 69.33358027 -45.32377197 71.40553379 -45.34643555 73.47753906 C-45.37987563 76.45157173 -45.43218505 79.42475679 -45.48828125 82.3984375 C-45.49467117 83.32868744 -45.5010611 84.25893738 -45.50764465 85.21737671 C-45.52743881 86.07811798 -45.54723297 86.93885925 -45.56762695 87.82568359 C-45.58428154 88.96485733 -45.58428154 88.96485733 -45.60127258 90.12704468 C-46 92 -46 92 -49 94 C-51.15625 94.30078125 -51.15625 94.30078125 -53.5 94.3125 C-54.66015625 94.33763672 -54.66015625 94.33763672 -55.84375 94.36328125 C-58.55470539 93.9065442 -59.28726511 93.11226564 -61 91 C-61.29109174 88.07209781 -61.39935909 85.35774661 -61.37231445 82.42944336 C-61.37596512 81.55439651 -61.37961578 80.67934967 -61.38337708 79.77778625 C-61.39149184 76.88160882 -61.37786586 73.98598919 -61.36328125 71.08984375 C-61.3627628 69.08110047 -61.36327991 67.07235667 -61.36479187 65.06361389 C-61.36470211 60.85279776 -61.35426364 56.64217294 -61.33618164 52.43139648 C-61.31347981 47.02500101 -61.31295258 41.61888483 -61.31969929 36.2124548 C-61.3230351 32.06471764 -61.31641674 27.91704455 -61.30657005 23.76931953 C-61.30271217 21.77534889 -61.30157226 19.78137113 -61.3031559 17.78739738 C-61.30352535 15.00517989 -61.29094073 12.22332527 -61.2746582 9.44116211 C-61.27713562 8.61149933 -61.27961304 7.78183655 -61.28216553 6.92703247 C-61.22874228 1.22874228 -61.22874228 1.22874228 -59 -1 C-56.21484375 -1.23046875 -56.21484375 -1.23046875 -52.9375 -1.1875 C-51.31134766 -1.17783203 -51.31134766 -1.17783203 -49.65234375 -1.16796875 C-47 -1 -47 -1 -46 0 C-45.83982834 2.80976518 -45.74049466 5.59773596 -45.68359375 8.41015625 C-45.66281265 9.25219101 -45.64203156 10.09422577 -45.62062073 10.96177673 C-45.55503188 13.66193179 -45.49619724 16.36218717 -45.4375 19.0625 C-45.39432363 20.88868241 -45.35070964 22.71485454 -45.30664062 24.54101562 C-45.19934106 29.02723992 -45.09810034 33.5135655 -45 38 C-35.13006684 26.14591854 -35.13006684 26.14591854 -25.625 14 C-14.6077734 -0.37657766 -14.6077734 -0.37657766 -9.9375 -2.1875 C-6.40672081 -1.96213112 -3.34306662 -1.13664265 0 0 Z " fill="#262626" transform="translate(633,50)"/>
<path d="M0 0 C0.06981514 8.43259227 0.12296998 16.86506178 0.15543652 25.29787254 C0.17102661 29.21447405 0.19214147 33.13087637 0.22631836 37.04736328 C0.25915161 40.8340002 0.27690294 44.62044672 0.28463173 48.40721512 C0.2901326 49.84476336 0.30087329 51.28230236 0.31719017 52.71976852 C0.46324181 66.13194997 -1.38200466 76.63299313 -10.62890625 86.7890625 C-18.31112262 94.02567468 -28.80867634 95.34940657 -39 95.2109375 C-48.97577053 94.50951613 -58.01045028 91.61324343 -64.78125 83.99609375 C-72.16685754 73.87708735 -72.44017377 62.63086651 -72.328125 50.5234375 C-72.32506017 49.06182043 -72.32318956 47.60020042 -72.32244873 46.13858032 C-72.31788252 43.10122199 -72.3035882 40.06413428 -72.28125 37.02685547 C-72.25271689 33.12726252 -72.24200931 29.22787924 -72.2375679 25.32819176 C-72.23342474 22.32229512 -72.22362066 19.31644098 -72.21169281 16.31056595 C-72.20598905 14.87119511 -72.20123069 13.4318202 -72.19742584 11.99244308 C-72.19058948 9.99412333 -72.17606412 7.99583426 -72.16113281 5.99755859 C-72.15430481 4.86047455 -72.14747681 3.7233905 -72.14044189 2.55184937 C-72 0 -72 0 -71 -1 C-69.00200428 -1.09873816 -67.00042842 -1.12971799 -65 -1.125 C-63.906875 -1.12757812 -62.81375 -1.13015625 -61.6875 -1.1328125 C-59 -1 -59 -1 -58 0 C-57.89202875 1.98221419 -57.85371288 3.96824942 -57.84228516 5.95336914 C-57.83202301 7.22882095 -57.82176086 8.50427277 -57.81118774 9.81837463 C-57.80774982 10.50496218 -57.8043119 11.19154972 -57.80076981 11.89894295 C-57.78899304 14.04783009 -57.76953918 16.19651511 -57.74765015 18.34532166 C-57.68602478 24.45695168 -57.63216281 30.56856631 -57.59863281 36.68041992 C-57.57758315 40.41649883 -57.54218768 44.15221797 -57.49787521 47.88809013 C-57.48378375 49.30767999 -57.47500836 50.72733361 -57.47182083 52.14698982 C-57.44748003 61.95851929 -57.34782428 70.65217572 -50 78 C-43.77387316 81.63190733 -38.12890279 82.68951683 -31 82 C-28.19045736 81.20768953 -25.69430573 80.16133868 -23 79 C-22.01 78.67 -21.02 78.34 -20 78 C-18.84761907 76.16424423 -18.84761907 76.16424423 -18 74 C-17.72492111 73.39656265 -17.44984222 72.79312531 -17.16642761 72.17140198 C-14.37362172 64.89818824 -14.52234623 57.59800079 -14.48828125 49.90234375 C-14.47140614 48.45787559 -14.45325216 47.01342186 -14.43388367 45.56898499 C-14.38668425 41.79619865 -14.35668177 38.02347084 -14.33044434 34.25048828 C-14.30048569 30.38887986 -14.25400859 26.52747257 -14.20898438 22.66601562 C-14.12329405 15.11077756 -14.05579797 7.55552431 -14 0 C-8.40693931 -2.05459372 -5.59306069 -2.05459372 0 0 Z " fill="#1E1E1E" transform="translate(719,50)"/>
<path d="M0 0 C0.33 12.87 0.66 25.74 1 39 C9.1609714 28.62063004 9.1609714 28.62063004 17 18 C17.66 18 18.32 18 19 18 C19.22300781 17.48695312 19.44601562 16.97390625 19.67578125 16.4453125 C21.53726453 13.0078832 23.82195557 9.97997713 26.1875 6.875 C26.64447266 6.24207031 27.10144531 5.60914063 27.57226562 4.95703125 C30.89094051 0.62112037 33.41282731 -1.09676192 39 -2 C42.9375 -1.625 42.9375 -1.625 46 -1 C47 2 47 2 46.20703125 3.76953125 C41.91258454 10.06083554 37.03581513 15.75801839 32.0390625 21.4921875 C28.57370454 25.47157718 25.24133116 29.54896601 21.9140625 33.64453125 C19.63380496 36.4506441 17.32208587 39.22847815 15 42 C16.37964261 44.94079548 17.97503924 47.48058368 19.90625 50.08984375 C20.48044678 50.86787354 21.05464355 51.64590332 21.64624023 52.44750977 C22.25798096 53.26920654 22.86972168 54.09090332 23.5 54.9375 C24.127854 55.78562256 24.75570801 56.63374512 25.40258789 57.50756836 C29.03226257 62.39760462 32.70624672 67.24967053 36.4375 72.0625 C42.44871795 79.86217949 42.44871795 79.86217949 45.125 83.5 C45.68445313 84.2528125 46.24390625 85.005625 46.8203125 85.78125 C48.20108457 88.3781988 48.23484302 90.10019919 48 93 C45.58489385 94.20755308 43.88261951 94.23572748 41.1875 94.3125 C40.33542969 94.34988281 39.48335938 94.38726562 38.60546875 94.42578125 C33.79010315 93.63886243 31.46930941 90.60631748 28.578125 86.87109375 C27.79421671 85.73193606 27.01824423 84.58727966 26.25 83.4375 C25.85167969 82.86064453 25.45335937 82.28378906 25.04296875 81.68945312 C23.30977744 79.14254318 21.97924275 76.93772824 21 74 C20.34 74 19.68 74 19 74 C17.49770994 72.02899544 16.11381382 70.06380695 14.75 68 C13.94130286 66.80257499 13.13140687 65.60595876 12.3203125 64.41015625 C11.92489258 63.82508301 11.52947266 63.24000977 11.12207031 62.63720703 C8.86193669 59.33945767 6.42970108 56.17333687 4 53 C3.01 51.68 2.02 50.36 1 49 C0.67 63.52 0.34 78.04 0 93 C-2.3396669 94.16983345 -3.83391527 94.1661241 -6.4375 94.1875 C-7.61119141 94.20876953 -7.61119141 94.20876953 -8.80859375 94.23046875 C-11 94 -11 94 -14 92 C-14.28608931 89.03954501 -14.37802086 86.2892287 -14.34057617 83.32763672 C-14.34101425 82.43001617 -14.34145233 81.53239563 -14.34190369 80.60757446 C-14.33980845 77.63139324 -14.31644287 74.65577069 -14.29296875 71.6796875 C-14.28737541 69.61988635 -14.28310408 67.56008122 -14.28010559 65.50027466 C-14.26863623 60.07172682 -14.23915105 54.64341875 -14.20599365 49.21496582 C-14.17533781 43.6784998 -14.16160986 38.14199513 -14.14648438 32.60546875 C-14.11428336 21.73687367 -14.06306178 10.86845675 -14 0 C-7.81311004 -2.27273509 -7.2283173 -2.06523351 0 0 Z " fill="#1E1E1E" transform="translate(419,50)"/>
<path d="M0 0 C0.99026436 -0.00503792 0.99026436 -0.00503792 2.00053406 -0.01017761 C4.19316465 -0.01971328 6.38571908 -0.02163203 8.57836914 -0.02270508 C10.09672579 -0.02591588 11.61508213 -0.02927981 13.13343811 -0.03279114 C16.32041135 -0.03878898 19.50735745 -0.04063037 22.69433594 -0.04003906 C26.78472139 -0.03993741 30.87493336 -0.05358976 34.96527767 -0.07081127 C38.10247095 -0.08191204 41.23962205 -0.08395887 44.37683296 -0.08342934 C45.88516399 -0.08461236 47.393496 -0.08905208 48.90180779 -0.0967617 C51.00888198 -0.10652294 53.11557637 -0.10369915 55.22265625 -0.09765625 C57.02348915 -0.09979378 57.02348915 -0.09979378 58.86070251 -0.10197449 C61.67602539 0.14526367 61.67602539 0.14526367 63.67602539 2.14526367 C63.99140255 6.48169968 64.12500386 8.47179596 61.67602539 12.14526367 C58.97045898 12.48583984 58.97045898 12.48583984 55.57446289 12.43823242 C54.36274414 12.42856445 53.15102539 12.41889648 51.90258789 12.40893555 C50.63157227 12.38379883 49.36055664 12.35866211 48.05102539 12.33276367 C46.77227539 12.31922852 45.49352539 12.30569336 44.17602539 12.29174805 C41.00894257 12.25629563 37.84268998 12.20687808 34.67602539 12.14526367 C34.68268723 13.15559662 34.68934906 14.16592957 34.69621277 15.20687866 C34.75694006 24.7128506 34.80195759 34.21878336 34.83146191 43.72490501 C34.84714014 48.61250242 34.86841758 53.49994366 34.90234375 58.38745117 C34.93486052 63.10123868 34.95286214 67.81487566 34.96065712 72.52876663 C34.96621449 74.33017981 34.97706621 76.13158445 34.99321556 77.93293381 C35.01488807 80.44969451 35.01799664 82.96582752 35.01660156 85.48266602 C35.02738739 86.23288528 35.03817322 86.98310455 35.04928589 87.75605774 C35.03678894 89.8296814 35.03678894 89.8296814 34.67602539 93.14526367 C31.65058206 95.1622259 31.06535157 95.40337463 27.67602539 95.33276367 C26.99540039 95.32631836 26.31477539 95.31987305 25.61352539 95.31323242 C23.67602539 95.14526367 23.67602539 95.14526367 20.67602539 94.14526367 C20.67602539 67.08526367 20.67602539 40.02526367 20.67602539 12.14526367 C11.76602539 12.14526367 2.85602539 12.14526367 -6.32397461 12.14526367 C-8.29632001 7.21440018 -8.53707756 5.99767549 -7.32397461 1.14526367 C-5.47796149 -0.70074945 -2.47091969 0.00785044 0 0 Z " fill="#1D1D1D" transform="translate(236.323974609375,48.854736328125)"/>
<path d="M0 0 C4.2440336 4.2440336 4.23154413 10.23207675 4.27105713 15.92671204 C4.26700867 16.79442734 4.26296021 17.66214264 4.25878906 18.55615234 C4.2622937 19.48881424 4.26579834 20.42147614 4.26940918 21.38240051 C4.27817571 24.45032302 4.27239429 27.51801284 4.265625 30.5859375 C4.26697334 32.7291366 4.26891527 34.87233539 4.27142334 37.01553345 C4.27436792 41.50257282 4.27009917 45.98953242 4.26074219 50.4765625 C4.24936192 56.2117112 4.2559024 61.9466724 4.26788712 67.68181419 C4.27513543 72.10689694 4.27280391 76.53193569 4.26763153 80.95701981 C4.26630254 83.07080737 4.26791632 85.18459899 4.27259064 87.29838181 C4.27770325 90.260714 4.26987878 93.22274841 4.25878906 96.18505859 C4.26283752 97.04872543 4.26688599 97.91239227 4.27105713 98.80223083 C4.23391317 104.19258158 4.11013923 109.964742 2 115 C0.515 115.495 0.515 115.495 -1 116 C-0.75601219 114.60164162 -0.75601219 114.60164162 -0.50709534 113.17503357 C0.19963996 108.18967272 0.13170403 103.22570304 0.11352539 98.19946289 C0.11367142 97.13530151 0.11381744 96.07114014 0.1139679 94.97473145 C0.11327388 91.47401863 0.10550545 87.97335971 0.09765625 84.47265625 C0.09579025 82.03885426 0.09436721 79.60505189 0.09336853 77.17124939 C0.08955766 70.77785193 0.07973959 64.38447732 0.06866455 57.99108887 C0.05841967 51.46216135 0.05386432 44.93323012 0.04882812 38.40429688 C0.03811603 25.60285485 0.02125009 12.80142864 0 0 Z " fill="#86E2EA" transform="translate(208,24)"/>
<path d="M0 0 C3.86497613 3.58118417 6.67811301 7.25903426 9.25 11.875 C9.62624512 12.54756836 10.00249023 13.22013672 10.39013672 13.91308594 C13.76306079 20.167718 16.49984944 26.65184489 19.125 33.25 C19.52750977 34.25015137 19.93001953 35.25030273 20.34472656 36.28076172 C20.70791992 37.2245166 21.07111328 38.16827148 21.4453125 39.140625 C21.93281982 40.40181152 21.93281982 40.40181152 22.43017578 41.68847656 C23.05320442 44.21582668 22.8546785 45.57223786 22 48 C22 47.01 22 46.02 22 45 C21.34 45 20.68 45 20 45 C19.67 45.66 19.34 46.32 19 47 C18.20439236 44.08500057 17.74677501 41.25438581 17.4375 38.25 C17.31181641 37.05117187 17.31181641 37.05117187 17.18359375 35.828125 C17.09271484 34.92320313 17.09271484 34.92320313 17 34 C16.34 34 15.68 34 15 34 C14.81824219 33.09507813 14.81824219 33.09507813 14.6328125 32.171875 C14.38144531 30.97304687 14.38144531 30.97304687 14.125 29.75 C13.88136719 28.56664062 13.88136719 28.56664062 13.6328125 27.359375 C13.08209363 24.98229161 13.08209363 24.98229161 11.9296875 22.890625 C11 21 11 21 11 18 C10.34 18 9.68 18 9 18 C8.8453125 17.0409375 8.8453125 17.0409375 8.6875 16.0625 C8.460625 15.381875 8.23375 14.70125 8 14 C7.01 13.67 6.02 13.34 5 13 C4.12109375 11.328125 4.12109375 11.328125 3.4375 9.25 C3.19257813 8.53328125 2.94765625 7.8165625 2.6953125 7.078125 C2.46585938 6.39234375 2.23640625 5.7065625 2 5 C1.33933281 3.33094605 0.67561748 1.6630584 0 0 Z " fill="#1164DC" transform="translate(134,69)"/>
<path d="M0 0 C0.66 0.33 1.32 0.66 2 1 C1.3125 2.9375 1.3125 2.9375 0 5 C-0.763125 5.144375 -1.52625 5.28875 -2.3125 5.4375 C-7.05344607 6.42979104 -9.41739397 10.12609095 -12 14 C-11.34 14 -10.68 14 -10 14 C-10.66 16.31 -11.32 18.62 -12 21 C-14.46800047 19.84826645 -16.04783565 18.95216435 -18 17 C-17.984375 15.19140625 -17.984375 15.19140625 -17 13 C-15.11932308 11.17412808 -13.29173908 9.55873806 -11.25 7.9375 C-10.7240625 7.50373047 -10.198125 7.06996094 -9.65625 6.62304688 C-6.59019862 4.12998282 -3.53313067 1.78509574 0 0 Z " fill="#57DAE8" transform="translate(136,30)"/>
<path d="M0 0 C0.33 0 0.66 0 1 0 C1.01030746 0.58215775 1.02061493 1.16431549 1.03123474 1.76411438 C1.13928566 7.81478134 1.25388492 13.86529895 1.37231445 19.91577148 C1.4156678 22.17485433 1.45734258 24.43397003 1.49731445 26.69311523 C1.55500713 29.93743804 1.61870469 33.1815954 1.68359375 36.42578125 C1.70866249 37.94465691 1.70866249 37.94465691 1.73423767 39.49421692 C1.75418289 40.43496567 1.77412811 41.37571442 1.79467773 42.3449707 C1.81022202 43.17325882 1.8257663 44.00154694 1.84178162 44.85493469 C1.92540723 47.18553247 1.92540723 47.18553247 3 50 C3.66 50 4.32 50 5 50 C5.33 51.98 5.66 53.96 6 56 C1.75779014 52.34292254 -0.69926095 48.21859375 -1.22079468 42.63699341 C-1.25059514 39.90818794 -1.18165324 37.19949972 -1.07421875 34.47265625 C-1.04777786 33.48373886 -1.02133698 32.49482147 -0.99409485 31.47593689 C-0.90677888 28.33747927 -0.79747361 25.20023718 -0.6875 22.0625 C-0.62419478 19.92647495 -0.56233034 17.79040669 -0.50195312 15.65429688 C-0.35131061 10.43558205 -0.1826404 5.21768775 0 0 Z " fill="#6A65EC" transform="translate(22,90)"/>
<path d="M0 0 C1.32 0 2.64 0 4 0 C9 5.22727273 9 5.22727273 9 8 C9.66 8 10.32 8 11 8 C11.639375 8.804375 12.27875 9.60875 12.9375 10.4375 C14.81035932 13.23720732 14.81035932 13.23720732 18 14 C18.94921875 16.06640625 18.94921875 16.06640625 19.6875 18.5625 C19.93886719 19.38878906 20.19023437 20.21507813 20.44921875 21.06640625 C20.63097656 21.70449219 20.81273437 22.34257813 21 23 C21.66 23 22.32 23 23 23 C23.33 24.65 23.66 26.3 24 28 C20.80547812 24.9717089 18.22231424 21.73716279 15.625 18.1875 C8.94929011 8.8675656 8.94929011 8.8675656 0 2 C0 1.34 0 0.68 0 0 Z " fill="#43C3F8" transform="translate(114,45)"/>
<path d="M0 0 C0.66 0.33 1.32 0.66 2 1 C1.67 1.33 1.34 1.66 1 2 C20.8 2.495 20.8 2.495 41 3 C41 3.33 41 3.66 41 4 C24.83 4 8.66 4 -8 4 C-6.68 3.34 -5.36 2.68 -4 2 C-3.29875 1.608125 -2.5975 1.21625 -1.875 0.8125 C-1.25625 0.544375 -0.6375 0.27625 0 0 Z " fill="#53CDDA" transform="translate(148,151)"/>
<path d="M0 0 C0.33 0.99 0.66 1.98 1 3 C-0.14995248 4.46938372 -1.30820368 5.93765455 -2.578125 7.3046875 C-4.3357561 9.40032458 -5.62044862 11.6385123 -7 14 C-8.22337679 15.94116104 -9.45262231 17.87863495 -10.6875 19.8125 C-11.31011719 20.78832031 -11.93273437 21.76414062 -12.57421875 22.76953125 C-13.04472656 23.50558594 -13.51523438 24.24164063 -14 25 C-14.99 24.67 -15.98 24.34 -17 24 C-14.9199736 20.935242 -12.83539368 17.87360786 -10.75 14.8125 C-10.16347656 13.94818359 -9.57695313 13.08386719 -8.97265625 12.19335938 C-6.11635385 8.00518563 -3.25631457 3.89306915 0 0 Z " fill="#284CEA" transform="translate(105,58)"/>
<path d="M0 0 C0.99 0 1.98 0 3 0 C3 0.99 3 1.98 3 3 C2.01 3.66 1.02 4.32 0 5 C-0.33 5.99 -0.66 6.98 -1 8 C-1.99 8.495 -1.99 8.495 -3 9 C-3.46806645 11.33744294 -3.82669794 13.69739079 -4.125 16.0625 C-4.29257812 17.35285156 -4.46015625 18.64320312 -4.6328125 19.97265625 C-4.75398438 20.97167969 -4.87515625 21.97070312 -5 23 C-5.33 23 -5.66 23 -6 23 C-7.61206606 14.60448767 -6.75330025 9.16500421 -2 2 C-1.34 1.34 -0.68 0.68 0 0 Z " fill="#9491ED" transform="translate(28,17)"/>
<path d="M0 0 C0.99 0.66 1.98 1.32 3 2 C3.97954639 9.85557791 3.83471668 17.96968608 0 25 C-1.8832261 27.21866078 -3.81444296 29.05728263 -6 31 C-6.66 30.67 -7.32 30.34 -8 30 C-7.38511719 29.29423828 -7.38511719 29.29423828 -6.7578125 28.57421875 C-6.21898437 27.95160156 -5.68015625 27.32898438 -5.125 26.6875 C-4.32449219 25.76517578 -4.32449219 25.76517578 -3.5078125 24.82421875 C1.2184589 19.106165 1.36786679 13.13095619 1 6 C0.71325582 3.99279077 0.39764263 1.98821313 0 0 Z " fill="#43C3FA" transform="translate(158,120)"/>
<path d="M0 0 C4.14298667 0.59834725 7.18194377 2.00664285 10.8125 4.0625 C11.78832031 4.61035156 12.76414062 5.15820312 13.76953125 5.72265625 C14.50558594 6.14417969 15.24164063 6.56570312 16 7 C14.171875 9.015625 14.171875 9.015625 12 11 C9.25 10.75 9.25 10.75 7 10 C7 8.68 7 7.36 7 6 C5.04351658 3.55439572 2.52724608 1.83007475 0 0 Z " fill="#908FF7" transform="translate(73,19)"/>
<path d="M0 0 C0.66 0.33 1.32 0.66 2 1 C4.06186069 7.18558207 3.17360453 12.96220965 1 19 C0.34 19.66 -0.32 20.32 -1 21 C-0.83628906 20.34644531 -0.67257813 19.69289062 -0.50390625 19.01953125 C0.12848563 15.23008226 0.10696709 11.51509049 0.0625 7.6875 C0.05798828 6.94693359 0.05347656 6.20636719 0.04882812 5.44335938 C0.03712175 3.62887101 0.01918898 1.81442466 0 0 Z " fill="#1267DC" transform="translate(157,122)"/>
<path d="M0 0 C-2.94209022 3.67761277 -5.59081436 4.72431991 -10 5.80078125 C-12.23734399 6.02364169 -13.86521444 5.66235534 -16 5 C-3.29032258 -1.64516129 -3.29032258 -1.64516129 0 0 Z " fill="#8EE6ED" transform="translate(167,17)"/>
<path d="M0 0 C0.66 0.33 1.32 0.66 2 1 C1.3125 2.9375 1.3125 2.9375 0 5 C-1.66500443 5.34153937 -3.33178677 5.67449498 -5 6 C-6.82337753 7.9568288 -6.82337753 7.9568288 -8 10 C-9.32 9.67 -10.64 9.34 -12 9 C-10.56351736 7.87370125 -9.12577415 6.7490101 -7.6875 5.625 C-6.88699219 4.99851562 -6.08648437 4.37203125 -5.26171875 3.7265625 C-3.55336788 2.42243282 -1.78827274 1.19218183 0 0 Z " fill="#88E5EC" transform="translate(136,30)"/>
<path d="M0 0 C0.33 0.99 0.66 1.98 1 3 C0.01 4.485 0.01 4.485 -1 6 C-1.70164642 7.98799818 -2.37372872 9.98698517 -3 12 C-3.66 12 -4.32 12 -5 12 C-5.33 13.98 -5.66 15.96 -6 18 C-7.28269334 14.15191998 -6.48651466 11.6305262 -5 8 C-3.4585144 5.24459448 -1.77586096 2.60956667 0 0 Z " fill="#274DEA" transform="translate(86,88)"/>
<path d="M0 0 C4.59306496 1.4859916 7.43569245 3.85014682 11 7 C10.01 7.33 9.02 7.66 8 8 C7.67 8.66 7.34 9.32 7 10 C7 8.68 7 7.36 7 6 C6.21625 5.7525 5.4325 5.505 4.625 5.25 C1.67682892 3.84610901 1.0975223 2.99324263 0 0 Z " fill="#9490F0" transform="translate(101,35)"/>
<path d="M0 0 C1.76923828 0.01353516 1.76923828 0.01353516 3.57421875 0.02734375 C4.47785156 0.03894531 5.38148438 0.05054688 6.3125 0.0625 C6.3125 0.3925 6.3125 0.7225 6.3125 1.0625 C-0.42903283 2.32091946 -6.82234138 3.32654456 -13.6875 3.0625 C-8.91955969 0.59632398 -5.38407674 -0.05330769 0 0 Z " fill="#A4EDF4" transform="translate(187.6875,10.9375)"/>
<path d="M0 0 C0.66 0.33 1.32 0.66 2 1 C0.90344712 2.31886772 -0.20253423 3.62990057 -1.3125 4.9375 C-1.92738281 5.66839844 -2.54226563 6.39929687 -3.17578125 7.15234375 C-5 9 -5 9 -8 10 C-6.34908222 5.70761377 -3.26245434 3.1206085 0 0 Z " fill="#606060" transform="translate(487,54)"/>
<path d="M0 0 C2 1 2 1 4 4 C4 4.99 4 5.98 4 7 C4.66 7 5.32 7 6 7 C6.33 8.98 6.66 10.96 7 13 C3.17764695 9.70486806 1.72004503 6.64412157 0 2 C0 1.34 0 0.68 0 0 Z " fill="#A5A2F3" transform="translate(21,133)"/>
<path d="M0 0 C0.66 0 1.32 0 2 0 C1.67 4.62 1.34 9.24 1 14 C0.67 14 0.34 14 0 14 C-0.19532961 12.2300132 -0.38098882 10.45895721 -0.5625 8.6875 C-0.66691406 7.70136719 -0.77132813 6.71523438 -0.87890625 5.69921875 C-1 3 -1 3 0 0 Z " fill="#8A86EE" transform="translate(22,26)"/>
<path d="M0 0 C0.639375 0.2475 1.27875 0.495 1.9375 0.75 C2.2675 1.74 2.5975 2.73 2.9375 3.75 C-0.0625 4.75 -0.0625 4.75 -2.25 3.8125 C-2.848125 3.461875 -3.44625 3.11125 -4.0625 2.75 C-4.0625 2.09 -4.0625 1.43 -4.0625 0.75 C-2.0625 -0.25 -2.0625 -0.25 0 0 Z " fill="#52DAF1" transform="translate(198.0625,146.25)"/>
<path d="M0 0 C1.2065625 0.0309375 1.2065625 0.0309375 2.4375 0.0625 C-0.44591534 4.27672242 -2.60553419 5.82325855 -7.5625 7.0625 C-6.1875 5.5625 -6.1875 5.5625 -4.5625 4.0625 C-3.9025 4.0625 -3.2425 4.0625 -2.5625 4.0625 C-2.8925 3.0725 -3.2225 2.0825 -3.5625 1.0625 C-2.5625 0.0625 -2.5625 0.0625 0 0 Z " fill="#0E60DA" transform="translate(151.5625,145.9375)"/>
<path d="M0 0 C0.66 0.33 1.32 0.66 2 1 C1.67 1.33 1.34 1.66 1 2 C2.32 2.66 3.64 3.32 5 4 C0.71 4 -3.58 4 -8 4 C-6.68 3.34 -5.36 2.68 -4 2 C-3.29875 1.608125 -2.5975 1.21625 -1.875 0.8125 C-1.25625 0.544375 -0.6375 0.27625 0 0 Z " fill="#4DBDEA" transform="translate(148,151)"/>
<path d="M0 0 C0.721875 0.61875 1.44375 1.2375 2.1875 1.875 C4.78381938 3.83666353 6.94671666 4.95316 10 6 C6.52176885 7.15941038 4.54104422 6.70820884 1 6 C0.67 4.02 0.34 2.04 0 0 Z " fill="#525FFB" transform="translate(78,147)"/>
<path d="M0 0 C1.32 0.33 2.64 0.66 4 1 C-0.455 4.465 -0.455 4.465 -5 8 C-5 5 -5 5 -2.75 2.25 C-1.8425 1.5075 -0.935 0.765 0 0 Z " fill="#6D6D6D" transform="translate(620,49)"/>
<path d="M0 0 C1.7492214 -0.08142927 3.49954542 -0.13938541 5.25 -0.1875 C6.22453125 -0.22230469 7.1990625 -0.25710938 8.203125 -0.29296875 C11.37468742 0.03924798 12.67040307 0.88672279 15 3 C14.01 2.855625 13.02 2.71125 12 2.5625 C8.00590535 1.99074821 4.00467063 1.49180166 0 1 C0 0.67 0 0.34 0 0 Z " fill="#74DBE7" transform="translate(185,12)"/>
<path d="M0 0 C2.0625 1.75 2.0625 1.75 4 4 C3.75 6.25 3.75 6.25 3 8 C3 7.01 3 6.02 3 5 C2.34 5 1.68 5 1 5 C0.67 5.66 0.34 6.32 0 7 C-0.93423645 3.98968256 -1.04449911 3.13349732 0 0 Z " fill="#1A63E8" transform="translate(153,109)"/>
<path d="M0 0 C0.66 0 1.32 0 2 0 C0.44499019 3.81684226 -2.03595495 6.19195732 -5 9 C-5.66 8.67 -6.32 8.34 -7 8 C-5.38405168 5.95880212 -3.7143618 3.95927063 -2 2 C-1.34 2 -0.68 2 0 2 C0 1.34 0 0.68 0 0 Z " fill="#284DEB" transform="translate(113,49)"/>
<path d="M0 0 C4.55015893 1.51671964 6.50057264 5.16891053 9 9 C5.18063472 7.44396229 2.73955562 5.04395069 0 2 C0 1.34 0 0.68 0 0 Z " fill="#1067DA" transform="translate(116,48)"/>
<path d="M0 0 C0.66 0.33 1.32 0.66 2 1 C-0.25 3.0625 -0.25 3.0625 -3 5 C-5.3125 4.75 -5.3125 4.75 -7 4 C-1.7265625 0.77734375 -1.7265625 0.77734375 0 0 Z " fill="#91E5EB" transform="translate(145,25)"/>
<path d="M0 0 C1.32 0 2.64 0 4 0 C6.25 3 6.25 3 8 6 C5.0280615 4.87548273 2.66559313 3.77706209 0 2 C0 1.34 0 0.68 0 0 Z " fill="#6DCDF7" transform="translate(114,45)"/>
<path d="M0 0 C1.21236328 0.02707031 1.21236328 0.02707031 2.44921875 0.0546875 C3.37154297 0.08949219 3.37154297 0.08949219 4.3125 0.125 C4.3125 0.455 4.3125 0.785 4.3125 1.125 C-3.72321429 3.40178571 -3.72321429 3.40178571 -7.6875 2.125 C-4.48369983 -0.01086678 -3.66810033 -0.10632175 0 0 Z " fill="#7EDFED" transform="translate(158.6875,19.875)"/>
<path d="M0 0 C4.455 0.99 4.455 0.99 9 2 C9 2.33 9 2.66 9 3 C6.36 3 3.72 3 1 3 C0.67 2.01 0.34 1.02 0 0 Z " fill="#9B99F1" transform="translate(64,16)"/>
<path d="" fill="#FFFFFF" transform="translate(0,0)"/>
<path d="" fill="#FFFFFF" transform="translate(0,0)"/>
<path d="" fill="#FFFFFF" transform="translate(0,0)"/>
<path d="" fill="#FFFFFF" transform="translate(0,0)"/>
<path d="" fill="#FFFFFF" transform="translate(0,0)"/>
<path d="" fill="#FFFFFF" transform="translate(0,0)"/>
<path d="" fill="#FFFFFF" transform="translate(0,0)"/>
<path d="" fill="#FFFFFF" transform="translate(0,0)"/>
<path d="" fill="#FFFFFF" transform="translate(0,0)"/>
<path d="" fill="#FFFFFF" transform="translate(0,0)"/>
<path d="" fill="#FFFFFF" transform="translate(0,0)"/>
<path d="" fill="#FFFFFF" transform="translate(0,0)"/>
<path d="" fill="#FFFFFF" transform="translate(0,0)"/>
<path d="" fill="#FFFFFF" transform="translate(0,0)"/>
<path d="" fill="#FFFFFF" transform="translate(0,0)"/>
<path d="" fill="#FFFFFF" transform="translate(0,0)"/>
<path d="" fill="#FFFFFF" transform="translate(0,0)"/>
<path d="" fill="#FFFFFF" transform="translate(0,0)"/>
<path d="" fill="#FFFFFF" transform="translate(0,0)"/>
<path d="" fill="#FFFFFF" transform="translate(0,0)"/>
<path d="" fill="#FFFFFF" transform="translate(0,0)"/>
<path d="" fill="#FFFFFF" transform="translate(0,0)"/>
<path d="" fill="#FFFFFF" transform="translate(0,0)"/>
<path d="" fill="#FFFFFF" transform="translate(0,0)"/>
<path d="" fill="#FFFFFF" transform="translate(0,0)"/>
<path d="" fill="#FFFFFF" transform="translate(0,0)"/>
<path d="" fill="#FFFFFF" transform="translate(0,0)"/>
<path d="" fill="#FFFFFF" transform="translate(0,0)"/>
<path d="" fill="#FFFFFF" transform="translate(0,0)"/>
<path d="" fill="#FFFFFF" transform="translate(0,0)"/>
<path d="" fill="#FFFFFF" transform="translate(0,0)"/>
<path d="" fill="#FFFFFF" transform="translate(0,0)"/>
<path d="" fill="#FFFFFF" transform="translate(0,0)"/>
<path d="" fill="#FFFFFF" transform="translate(0,0)"/>
<path d="" fill="#FFFFFF" transform="translate(0,0)"/>
<path d="" fill="#FFFFFF" transform="translate(0,0)"/>
<path d="" fill="#FFFFFF" transform="translate(0,0)"/>
<path d="" fill="#FFFFFF" transform="translate(0,0)"/>
<path d="" fill="#FFFFFF" transform="translate(0,0)"/>
<path d="" fill="#FFFFFF" transform="translate(0,0)"/>
<path d="" fill="#FFFFFF" transform="translate(0,0)"/>
<path d="" fill="#FFFFFF" transform="translate(0,0)"/>
<path d="" fill="#FFFFFF" transform="translate(0,0)"/>
<path d="" fill="#FFFFFF" transform="translate(0,0)"/>
<path d="" fill="#FFFFFF" transform="translate(0,0)"/>
<path d="" fill="#FFFFFF" transform="translate(0,0)"/>
<path d="" fill="#FFFFFF" transform="translate(0,0)"/>
<path d="" fill="#FFFFFF" transform="translate(0,0)"/>
<path d="" fill="#FFFFFF" transform="translate(0,0)"/>
<path d="" fill="#FFFFFF" transform="translate(0,0)"/>
<path d="" fill="#FFFFFF" transform="translate(0,0)"/>
<path d="" fill="#FFFFFF" transform="translate(0,0)"/>
<path d="" fill="#FFFFFF" transform="translate(0,0)"/>
<path d="" fill="#FFFFFF" transform="translate(0,0)"/>
<path d="" fill="#FFFFFF" transform="translate(0,0)"/>
<path d="" fill="#FFFFFF" transform="translate(0,0)"/>
<path d="" fill="#FFFFFF" transform="translate(0,0)"/>
<path d="" fill="#FFFFFF" transform="translate(0,0)"/>
<path d="" fill="#FFFFFF" transform="translate(0,0)"/>
<path d="" fill="#FFFFFF" transform="translate(0,0)"/>
<path d="" fill="#FFFFFF" transform="translate(0,0)"/>
</svg>
